<?xml version="1.0" encoding="UTF-8" standalone="no"?>
<svg
   height="9.52012384cm"
   version="1.2"
   viewBox="0 0 429.0370820736 359.8157042216352"
   width="11.35160613cm"
   id="svg17"
   sodipodi:docname="sweep.svg"
   inkscape:version="1.1.2 (0a00cf5339, 2022-02-04)"
   xmlns:inkscape="http://www.inkscape.org/namespaces/inkscape"
   xmlns:sodipodi="http://sodipodi.sourceforge.net/DTD/sodipodi-0.dtd"
   xmlns="http://www.w3.org/2000/svg"
   xmlns:svg="http://www.w3.org/2000/svg"
   xmlns:dc="http://purl.org/dc/elements/1.1/"
   xmlns:ns="http://www.w3.org/1999/02/22-rdf-syntax-ns"
   xmlns:ns0="http://creativecommons.org/ns">
  <sodipodi:namedview
     id="namedview19"
     pagecolor="#ffffff"
     bordercolor="#666666"
     borderopacity="1.0"
     inkscape:pageshadow="2"
     inkscape:pageopacity="0.0"
     inkscape:pagecheckerboard="0"
     inkscape:document-units="cm"
     showgrid="false"
     inkscape:zoom="3.4826746"
     inkscape:cx="333.36448"
     inkscape:cy="239.04042"
     inkscape:window-width="1920"
     inkscape:window-height="1016"
     inkscape:window-x="0"
     inkscape:window-y="0"
     inkscape:window-maximized="1"
     inkscape:current-layer="layer1" />
  <metadata
     id="metadata2">
    <ns:RDF>
      <ns0:Work>
        <dc:format>image/svg+xml</dc:format>
        <dc:source>vpype read /home/daniele/Desktop/sweep-bling-mx__pcb-brd.svg linemerge write sweep.svg
</dc:source>
        <dc:date>2024-04-01T16:29:22.468732</dc:date>
      </ns0:Work>
    </ns:RDF>
  </metadata>
  <defs
     id="defs4" />
  <g
     fill="none"
     id="layer1"
     inkscape:groupmode="layer"
     inkscape:label="1"
     stroke="#000000"
     style="display:inline">
    <polygon
       points="70.5411,63.7059 70.5306,64.0946 70.499,64.4823 70.4465,64.8676 70.3732,65.2496 70.2794,65.627 70.1652,65.9988 70.0311,66.3639 69.8774,66.7211 69.7046,67.0696 69.5132,67.4081 69.3037,67.7358 69.0769,68.0517 68.8332,68.3548 68.5735,68.6443 68.2985,68.9193 68.009,69.179 67.7058,69.4227 67.39,69.6496 67.0623,69.859 66.7237,70.0505 66.3753,70.2233 66.018,70.3769 65.653,70.5111 65.2812,70.6252 64.9038,70.7191 64.5218,70.7924 64.1364,70.8449 63.7488,70.8764 63.36,70.887 62.9712,70.8764 62.5836,70.8449 62.1983,70.7924 61.8163,70.7191 61.4389,70.6252 61.0671,70.5111 60.702,70.3769 60.3448,70.2233 59.9963,70.0505 59.6578,69.859 59.3301,69.6496 59.0142,69.4227 58.7111,69.179 58.4216,68.9193 58.1466,68.6443 57.8869,68.3548 57.6432,68.0517 57.4163,67.7358 57.2068,67.4081 57.0154,67.0696 56.8426,66.7211 56.6889,66.3639 56.5548,65.9988 56.4407,65.627 56.3468,65.2496 56.2735,64.8676 56.221,64.4823 56.1895,64.0946 56.1789,63.7059 56.1895,63.3171 56.221,62.9294 56.2735,62.5441 56.3468,62.1621 56.4407,61.7847 56.5548,61.4129 56.6889,61.0479 56.8426,60.6906 57.0154,60.3422 57.2068,60.0036 57.4163,59.6759 57.6432,59.36 57.8869,59.0569 58.1466,58.7674 58.4216,58.4924 58.7111,58.2327 59.0142,57.989 59.3301,57.7621 59.6578,57.5527 59.9963,57.3613 60.3448,57.1885 60.702,57.0348 61.0671,56.9007 61.4389,56.7865 61.8163,56.6926 62.1983,56.6194 62.5836,56.5669 62.9712,56.5353 63.36,56.5248 63.7488,56.5353 64.1364,56.5669 64.5218,56.6194 64.9038,56.6926 65.2812,56.7865 65.653,56.9007 66.018,57.0348 66.3753,57.1885 66.7237,57.3613 67.0623,57.5527 67.39,57.7621 67.7058,57.989 68.009,58.2327 68.2985,58.4924 68.5735,58.7674 68.8332,59.0569 69.0769,59.36 69.3037,59.6759 69.5132,60.0036 69.7046,60.3422 69.8774,60.6906 70.0311,61.0479 70.1652,61.4129 70.2794,61.7847 70.3732,62.1621 70.4465,62.5441 70.499,62.9294 70.5306,63.3171"
       id="hole4" />
    <polygon
       points="90.2211,242.266 90.2106,242.6548 90.1791,243.0424 90.1265,243.4277 90.0533,243.8097 89.9594,244.1871 89.8452,244.5589 89.7111,244.924 89.5574,245.2812 89.3846,245.6297 89.1932,245.9682 88.9838,246.2959 88.7569,246.6118 88.5132,246.9149 88.2535,247.2044 87.9785,247.4794 87.689,247.7391 87.3859,247.9828 87.07,248.2097 86.7423,248.4192 86.4037,248.6106 86.0553,248.7834 85.698,248.9371 85.333,249.0712 84.9612,249.1853 84.5838,249.2792 84.2018,249.3525 83.8165,249.405 83.4288,249.4365 83.04,249.4471 82.6513,249.4365 82.2636,249.405 81.8783,249.3525 81.4963,249.2792 81.1189,249.1853 80.7471,249.0712 80.382,248.9371 80.0248,248.7834 79.6764,248.6106 79.3378,248.4192 79.0101,248.2097 78.6942,247.9828 78.3911,247.7391 78.1016,247.4794 77.8266,247.2044 77.5669,246.9149 77.3232,246.6118 77.0963,246.2959 76.8869,245.9682 76.6954,245.6297 76.5226,245.2812 76.369,244.924 76.2348,244.5589 76.1207,244.1871 76.0268,243.8097 75.9535,243.4277 75.901,243.0424 75.8695,242.6548 75.8589,242.266 75.8695,241.8772 75.901,241.4896 75.9535,241.1042 76.0268,240.7222 76.1207,240.3448 76.2348,239.973 76.369,239.608 76.5226,239.2507 76.6954,238.9023 76.8869,238.5637 77.0963,238.236 77.3232,237.9202 77.5669,237.617 77.8266,237.3275 78.1016,237.0525 78.3911,236.7928 78.6942,236.5491 79.0101,236.3223 79.3378,236.1128 79.6764,235.9214 80.0248,235.7486 80.382,235.5949 80.7471,235.4608 81.1189,235.3466 81.4963,235.2528 81.8783,235.1795 82.2636,235.127 82.6513,235.0954 83.04,235.0849 83.4288,235.0954 83.8165,235.127 84.2018,235.1795 84.5838,235.2528 84.9612,235.3466 85.333,235.4608 85.698,235.5949 86.0553,235.7486 86.4037,235.9214 86.7423,236.1128 87.07,236.3223 87.3859,236.5491 87.689,236.7928 87.9785,237.0525 88.2535,237.3275 88.5132,237.617 88.7569,237.9202 88.9838,238.236 89.1932,238.5637 89.3846,238.9023 89.5574,239.2507 89.7111,239.608 89.8452,239.973 89.9594,240.3448 90.0533,240.7222 90.1265,241.1042 90.1791,241.4896 90.2106,241.8772"
       id="hole2" />
    <polygon
       points="399.3413,286.426 399.3308,286.8148 399.2992,287.2024 399.2467,287.5878 399.1734,287.9697 399.0796,288.3471 398.9654,288.7189 398.8313,289.084 398.6776,289.4413 398.5048,289.7897 398.3134,290.1282 398.1039,290.4559 397.877,290.7718 397.6334,291.0749 397.3737,291.3644 397.0987,291.6394 396.8092,291.8992 396.506,292.1428 396.1902,292.3697 395.8625,292.5792 395.5239,292.7706 395.1755,292.9434 394.8182,293.0971 394.4531,293.2312 394.0814,293.3453 393.7039,293.4392 393.322,293.5125 392.9366,293.565 392.549,293.5966 392.1602,293.6071 391.7714,293.5966 391.3838,293.565 390.9984,293.5125 390.6165,293.4392 390.2391,293.3453 389.8673,293.2312 389.5022,293.0971 389.1449,292.9434 388.7965,292.7706 388.458,292.5792 388.1303,292.3697 387.8144,292.1428 387.5113,291.8992 387.2218,291.6394 386.9468,291.3644 386.687,291.0749 386.4434,290.7718 386.2165,290.4559 386.007,290.1282 385.8156,289.7897 385.6428,289.4413 385.4891,289.084 385.355,288.7189 385.2409,288.3471 385.147,287.9697 385.0737,287.5878 385.0212,287.2024 384.9896,286.8148 384.9791,286.426 384.9896,286.0372 385.0212,285.6496 385.0737,285.2642 385.147,284.8823 385.2409,284.5048 385.355,284.1331 385.4891,283.768 385.6428,283.4107 385.8156,283.0623 386.007,282.7237 386.2165,282.396 386.4434,282.0802 386.687,281.777 386.9468,281.4875 387.2218,281.2125 387.5113,280.9528 387.8144,280.7092 388.1303,280.4823 388.458,280.2728 388.7965,280.0814 389.1449,279.9086 389.5022,279.7549 389.8673,279.6208 390.2391,279.5066 390.6165,279.4128 390.9984,279.3395 391.3838,279.287 391.7714,279.2554 392.1602,279.2449 392.549,279.2554 392.9366,279.287 393.322,279.3395 393.7039,279.4128 394.0814,279.5066 394.4531,279.6208 394.8182,279.7549 395.1755,279.9086 395.5239,280.0814 395.8625,280.2728 396.1902,280.4823 396.506,280.7092 396.8092,280.9528 397.0987,281.2125 397.3737,281.4875 397.6334,281.777 397.877,282.0802 398.1039,282.396 398.3134,282.7237 398.5048,283.0623 398.6776,283.4107 398.8313,283.768 398.9654,284.1331 399.0796,284.5048 399.1734,284.8823 399.2467,285.2642 399.2992,285.6496 399.3308,286.0372"
       id="hole1" />
    <polygon
       points="299.5013,26.2658 299.4907,26.6546 299.4592,27.0423 299.4067,27.4276 299.3334,27.8096 299.2395,28.187 299.1254,28.5588 298.9912,28.9239 298.8376,29.2811 298.6648,29.6295 298.4733,29.9681 298.2639,30.2958 298.037,30.6117 297.7933,30.9148 297.5336,31.2043 297.2586,31.4793 296.9691,31.739 296.666,31.9827 296.3501,32.2096 296.0224,32.419 295.6839,32.6104 295.3354,32.7832 294.9782,32.9369 294.6131,33.071 294.2413,33.1852 293.8639,33.2791 293.4819,33.3524 293.0966,33.4049 292.7089,33.4364 292.3202,33.447 291.9314,33.4364 291.5438,33.4049 291.1584,33.3524 290.7764,33.2791 290.399,33.1852 290.0272,33.071 289.6622,32.9369 289.3049,32.7832 288.9565,32.6104 288.6179,32.419 288.2902,32.2096 287.9743,31.9827 287.6712,31.739 287.3817,31.4793 287.1067,31.2043 286.847,30.9148 286.6033,30.6117 286.3764,30.2958 286.167,29.9681 285.9756,29.6295 285.8028,29.2811 285.6491,28.9239 285.515,28.5588 285.4008,28.187 285.3069,27.8096 285.2337,27.4276 285.1812,27.0423 285.1496,26.6546 285.1391,26.2658 285.1496,25.8771 285.1812,25.4894 285.2337,25.1041 285.3069,24.7221 285.4008,24.3447 285.515,23.9729 285.6491,23.6078 285.8028,23.2506 285.9756,22.9022 286.167,22.5636 286.3764,22.2359 286.6033,21.92 286.847,21.6169 287.1067,21.3274 287.3817,21.0524 287.6712,20.7927 287.9743,20.549 288.2902,20.3221 288.6179,20.1127 288.9565,19.9213 289.3049,19.7485 289.6622,19.5948 290.0272,19.4607 290.399,19.3465 290.7764,19.2526 291.1584,19.1793 291.5438,19.1268 291.9314,19.0953 292.3202,19.0847 292.7089,19.0953 293.0966,19.1268 293.4819,19.1793 293.8639,19.2526 294.2413,19.3465 294.6131,19.4607 294.9782,19.5948 295.3354,19.7485 295.6839,19.9213 296.0224,20.1127 296.3501,20.3221 296.666,20.549 296.9691,20.7927 297.2586,21.0524 297.5336,21.3274 297.7933,21.6169 298.037,21.92 298.2639,22.2359 298.4733,22.5636 298.6648,22.9022 298.8376,23.2506 298.9912,23.6078 299.1254,23.9729 299.2395,24.3447 299.3334,24.7221 299.4067,25.1041 299.4592,25.4894 299.4907,25.8771"
       id="hole3" />
    <polygon
       points="428.8972,125.3953 428.8684,124.9919 428.7824,124.5967 428.6411,124.2178 428.4472,123.8628 428.2049,123.539 427.9189,123.2531 427.5951,123.0107 427.2401,122.8169 426.8612,122.6755 426.466,122.5896 426.0626,122.5607 426.0626,122.5607 362.9293,122.5717 362.9293,122.5717 362.5343,122.551 362.1435,122.4891 361.7614,122.3867 361.3921,122.2449 361.0396,122.0653 360.7078,121.8498 360.4003,121.6009 360.1206,121.3211 359.8716,121.0137 359.6562,120.6819 359.4766,120.3294 359.3348,119.9601 359.2324,119.5779 359.1705,119.1872 359.1498,118.7921 359.1498,118.7921 359.1687,37.9257 359.1687,37.9257 359.1401,37.5242 359.0549,37.1308 358.9148,36.7534 358.7227,36.3997 358.4825,36.0767 358.1989,35.791 357.8777,35.5484 357.5254,35.3537 357.5254,35.3537 357.172,35.2186 356.8185,35.0838 356.4649,34.9492 356.1112,34.8148 355.7575,34.6807 355.4036,34.5468 355.0496,34.4132 354.6956,34.2798 354.3415,34.1467 353.9872,34.0138 353.6329,33.8811 353.2785,33.7487 352.924,33.6166 352.5694,33.4847 352.2147,33.353 351.8599,33.2216 351.505,33.0904 351.1501,32.9595 350.795,32.8289 350.4399,32.6984 350.0846,32.5683 349.7293,32.4383 349.3739,32.3086 349.0184,32.1792 348.6628,32.05 348.3071,31.9211 347.9513,31.7924 347.5954,31.6639 347.2395,31.5357 346.8834,31.4078 346.5273,31.2801 346.1711,31.1526 345.8148,31.0254 345.4584,30.8984 345.1019,30.7717 344.7453,30.6453 344.3886,30.519 344.0319,30.3931 343.675,30.2674 343.3181,30.1419 342.9611,30.0167 342.604,29.8917 342.2468,29.7669 341.8896,29.6425 341.5322,29.5182 341.1747,29.3942 340.8172,29.2705 340.4596,29.147 340.1019,29.0238 339.7441,28.9008 339.3862,28.778 339.0283,28.6556 338.6702,28.5333 338.3121,28.4113 337.9539,28.2896 337.5956,28.1681 337.2372,28.0468 336.8787,27.9258 336.5202,27.8051 336.1615,27.6846 335.8028,27.5643 335.444,27.4443 335.0851,27.3246 334.7262,27.2051 334.3671,27.0858 334.008,26.9668 333.6488,26.848 333.2895,26.7295 332.9301,26.6113 332.5706,26.4933 332.2111,26.3755 331.8514,26.258 331.4917,26.1408 331.1319,26.0238 330.7721,25.907 330.4121,25.7905 330.0521,25.6742 329.692,25.5582 329.3318,25.4425 328.9715,25.327 328.6111,25.2117 328.2507,25.0967 327.8902,24.982 327.5296,24.8675 327.1689,24.7532 326.8082,24.6392 326.4473,24.5255 326.0864,24.412 325.7254,24.2987 325.3644,24.1857 325.0032,24.073 324.642,23.9605 324.2807,23.8482 323.9193,23.7362 323.5578,23.6245 323.1963,23.513 322.8347,23.4018 322.473,23.2908 322.1112,23.18 321.7494,23.0695 321.3875,22.9593 321.0255,22.8493 320.6634,22.7396 320.3012,22.6301 319.939,22.5209 319.5767,22.4119 319.2143,22.3032 318.8519,22.1947 318.4893,22.0865 318.1267,21.9785 317.7641,21.8708 317.4013,21.7634 317.0385,21.6561 316.6756,21.5492 316.3126,21.4425 315.9495,21.336 315.5864,21.2298 315.2232,21.1239 314.8599,21.0182 314.4966,20.9127 314.1332,20.8075 313.7697,20.7026 313.4061,20.5979 313.0425,20.4935 312.6788,20.3893 312.315,20.2854 311.9511,20.1817 311.5872,20.0783 311.2232,19.9751 310.8591,19.8722 310.495,19.7695 310.1308,19.6671 309.7665,19.5649 309.4021,19.463 309.0377,19.3614 308.6732,19.26 308.3086,19.1588 307.944,19.058 307.5793,18.9573 307.2145,18.8569 306.8497,18.7568 306.4847,18.6569 306.1198,18.5573 305.7547,18.4579 305.3896,18.3588 305.0244,18.26 304.6591,18.1613 304.2938,18.063 303.9284,17.9649 303.5629,17.867 303.1974,17.7694 302.8318,17.6721 302.4661,17.575 302.1004,17.4782 301.7346,17.3816 301.3687,17.2853 301.0028,17.1892 300.6368,17.0934 300.2707,16.9979 299.9046,16.9026 299.5384,16.8075 299.1721,16.7127 298.8057,16.6182 298.4393,16.5239 298.0729,16.4298 297.7063,16.3361 297.3398,16.2426 296.9731,16.1493 296.6064,16.0563 296.2396,15.9635 295.8727,15.871 295.5058,15.7788 295.1388,15.6868 294.7718,15.595 294.4047,15.5036 294.0375,15.4123 293.6702,15.3214 293.3029,15.2306 292.9356,15.1402 292.5681,15.05 292.2007,14.96 291.8331,14.8703 291.4655,14.7809 291.0978,14.6917 290.7301,14.6028 290.3623,14.5141 289.9944,14.4257 289.6265,14.3375 289.2585,14.2496 288.8905,14.162 288.5224,14.0746 288.1542,13.9874 287.786,13.9006 287.4177,13.8139 287.0493,13.7276 286.6809,13.6414 286.3125,13.5556 285.9439,13.47 285.5753,13.3846 285.2067,13.2995 284.838,13.2147 284.4692,13.1301 284.1004,13.0458 283.7315,12.9617 283.3626,12.8779 282.9936,12.7944 282.6245,12.7111 282.2554,12.6281 281.8862,12.5453 281.517,12.4627 281.1477,12.3805 280.7784,12.2985 280.409,12.2167 280.0395,12.1352 279.67,12.054 279.3005,11.973 278.9308,11.8923 278.5612,11.8118 278.1914,11.7316 277.8216,11.6516 277.4518,11.5719 277.0819,11.4925 276.7119,11.4133 276.3419,11.3344 275.9718,11.2557 275.6017,11.1773 275.2315,11.0991 274.8613,11.0212 274.491,10.9436 274.1207,10.8662 273.7503,10.7891 273.3798,10.7122 273.0093,10.6356 272.6388,10.5592 272.2682,10.4831 271.8975,10.4073 271.5268,10.3317 271.156,10.2564 270.7852,10.1813 270.4144,10.1065 270.0434,10.0319 269.6725,9.9576 269.3014,9.8836 268.9304,9.8098 268.5592,9.7363 268.1881,9.663 267.8168,9.59 267.4456,9.5173 267.0742,9.4448 266.7028,9.3726 266.3314,9.3006 265.9599,9.2289 265.5884,9.1574 265.2168,9.0862 264.8452,9.0153 264.4735,8.9446 264.1018,8.8742 263.73,8.804 263.3582,8.7341 262.9863,8.6645 262.6144,8.5951 262.2424,8.526 261.8704,8.4571 261.4984,8.3885 261.1262,8.3201 260.7541,8.252 260.3819,8.1842 260.0096,8.1166 259.6373,8.0493 259.265,7.9822 258.8926,7.9154 258.5201,7.8489 258.1477,7.7826 257.7751,7.7166 257.4025,7.6508 257.0299,7.5853 256.6573,7.5201 256.2845,7.4551 255.9118,7.3903 255.539,7.3259 255.1661,7.2616 254.7932,7.1977 254.4203,7.134 254.0473,7.0706 253.6743,7.0074 253.3012,6.9445 252.9281,6.8818 252.5549,6.8194 252.1817,6.7573 251.8085,6.6954 251.4352,6.6338 251.0619,6.5724 250.6885,6.5113 250.3151,6.4505 249.9416,6.3899 249.5681,6.3296 249.1946,6.2695 248.821,6.2097 248.4474,6.1502 248.0737,6.0909 247.7,6.0319 247.3263,5.9731 246.9525,5.9146 246.5787,5.8564 246.2048,5.7984 245.8309,5.7406 245.4569,5.6832 245.083,5.626 244.7089,5.569 244.3349,5.5123 243.9608,5.4559 243.5866,5.3998 243.2124,5.3439 242.8382,5.2882 242.4639,5.2328 242.0896,5.1777 241.7153,5.1228 241.3409,5.0682 240.9665,5.0139 240.5921,4.9598 240.2176,4.906 239.843,4.8524 239.4685,4.7991 239.0939,4.7461 238.7192,4.6933 238.3446,4.6408 237.9698,4.5885 237.5951,4.5365 237.2203,4.4848 236.8455,4.4333 236.4706,4.3821 236.0957,4.3311 235.7208,4.2804 235.3459,4.23 234.9709,4.1798 234.5958,4.1299 234.2208,4.0802 233.8457,4.0308 233.4705,3.9817 233.0954,3.9328 232.7202,3.8842 232.3449,3.8359 231.9697,3.7878 231.5944,3.7399 231.219,3.6924 230.8437,3.6451 230.4683,3.598 230.0928,3.5512 229.7174,3.5047 229.3419,3.4584 228.9663,3.4124 228.5908,3.3667 228.2152,3.3212 227.8395,3.276 227.4639,3.231 227.0882,3.1863 226.7125,3.1419 226.3367,3.0977 225.9609,3.0538 225.5851,3.0101 225.2093,2.9667 224.8334,2.9236 224.4575,2.8807 224.0816,2.8381 223.7056,2.7958 223.3296,2.7537 222.9536,2.7119 222.5776,2.6703 222.2015,2.629 221.8254,2.588 221.4493,2.5472 221.0731,2.5067 220.6969,2.4664 220.3207,2.4264 219.9444,2.3867 219.5682,2.3472 219.1919,2.308 218.8155,2.2691 218.4392,2.2304 218.0628,2.1919 217.6864,2.1538 217.31,2.1159 216.9335,2.0782 216.557,2.0409 216.1805,2.0037 215.804,1.9669 215.4274,1.9303 215.0508,1.894 214.6742,1.8579 214.2975,1.8221 213.9209,1.7865 213.5442,1.7512 213.1675,1.7162 212.7907,1.6815 212.414,1.647 212.0372,1.6127 211.6604,1.5787 211.2836,1.545 210.9067,1.5116 210.5298,1.4784 210.1529,1.4455 209.776,1.4128 209.399,1.3804 209.0221,1.3482 208.6451,1.3164 208.2681,1.2847 207.891,1.2534 207.514,1.2223 207.1369,1.1915 206.7598,1.1609 206.3827,1.1306 206.0055,1.1005 205.6284,1.0708 205.2512,1.0412 204.874,1.012 204.4967,0.983 204.1195,0.9542 203.7422,0.9258 203.3649,0.8976 202.9876,0.8696 202.6103,0.8419 202.233,0.8145 201.8556,0.7873 201.4782,0.7604 201.1008,0.7338 200.7234,0.7074 200.346,0.6813 199.9685,0.6555 199.5911,0.6299 199.2136,0.6045 198.8361,0.5795 198.4585,0.5547 198.081,0.5301 197.7034,0.5059 197.3259,0.4819 196.9483,0.4581 196.5707,0.4346 196.193,0.4114 195.8154,0.3884 195.4377,0.3657 195.0601,0.3433 194.6824,0.3211 194.3047,0.2992 193.927,0.2775 193.5492,0.2562 193.1715,0.235 192.7937,0.2142 192.4159,0.1936 192.0381,0.1732 191.6603,0.1531 191.2825,0.1333 190.9047,0.1138 190.5268,0.0945 190.5268,0.0945 175.5025,0.1115 175.5025,0.1115 175.1243,0.1118 174.7461,0.1126 174.368,0.114 173.9898,0.1159 173.6117,0.1184 173.2335,0.1214 172.8554,0.125 172.4772,0.1291 172.0991,0.1338 171.721,0.139 171.3428,0.1448 170.9647,0.1511 170.5866,0.158 170.2085,0.1654 169.8305,0.1734 169.4524,0.182 169.0744,0.191 168.6963,0.2007 168.3183,0.2108 167.9403,0.2216 167.5623,0.2329 167.1843,0.2447 166.8063,0.2571 166.4284,0.27 166.0505,0.2835 165.6726,0.2975 165.2947,0.3121 164.9168,0.3272 164.539,0.3429 164.1612,0.3592 163.7834,0.3759 163.4056,0.3933 163.0279,0.4112 162.6502,0.4296 162.2725,0.4486 161.8948,0.4681 161.5172,0.4882 161.1396,0.5088 160.762,0.53 160.3845,0.5517 160.007,0.574 159.6295,0.5968 159.2521,0.6202 158.8747,0.6441 158.4973,0.6686 158.12,0.6936 157.7427,0.7192 157.3654,0.7453 156.9882,0.772 156.611,0.7992 156.2339,0.827 155.8568,0.8553 155.4797,0.8842 155.1027,0.9136 154.7257,0.9436 154.3488,0.9741 153.9719,1.0052 153.5951,1.0368 153.2183,1.069 152.8415,1.1017 152.4648,1.1349 152.0882,1.1687 151.7116,1.2031 151.3351,1.238 150.9586,1.2734 150.5821,1.3094 150.2057,1.346 149.8294,1.3831 149.4531,1.4207 149.0769,1.4589 148.7007,1.4976 148.3246,1.5369 147.9485,1.5768 147.5725,1.6171 147.1966,1.6581 146.8207,1.6995 146.4449,1.7416 146.0691,1.7841 145.6934,1.8273 145.3178,1.8709 144.9422,1.9151 144.5667,1.9599 144.1913,2.0052 143.8159,2.051 143.4406,2.0974 143.0654,2.1444 142.6902,2.1919 142.3151,2.2399 141.9401,2.2885 141.5651,2.3376 141.1902,2.3873 140.8154,2.4375 140.4407,2.4882 140.066,2.5395 139.6914,2.5914 139.3169,2.6438 138.9425,2.6967 138.5681,2.7502 138.1938,2.8043 137.8196,2.8588 137.4455,2.914 137.0714,2.9696 136.6975,3.0258 136.3236,3.0826 135.9498,3.1399 135.5761,3.1977 135.2025,3.2561 134.8289,3.3151 134.4555,3.3745 134.0821,3.4345 133.7088,3.4951 133.3356,3.5562 132.9625,3.6179 132.5895,3.6801 132.2166,3.7428 131.8438,3.8061 131.471,3.8699 131.0984,3.9342 130.7258,3.9991 130.3534,4.0646 129.981,4.1306 129.6087,4.1971 129.2366,4.2642 128.8645,4.3318 128.4925,4.4 128.1207,4.4686 127.7489,4.5379 127.3772,4.6077 127.0057,4.678 126.6342,4.7488 126.2628,4.8202 125.8916,4.8922 125.5204,4.9647 125.1494,5.0377 124.7784,5.1113 124.4076,5.1854 124.0369,5.26 123.6663,5.3352 123.2958,5.4109 122.9254,5.4872 122.5551,5.564 122.1849,5.6413 121.8149,5.7192 121.4449,5.7976 121.0751,5.8765 120.7054,5.956 120.3358,6.0361 119.9663,6.1166 119.5969,6.1977 119.2277,6.2794 118.8586,6.3616 118.4896,6.4443 118.1207,6.5275 117.7519,6.6113 117.3833,6.6956 117.0148,6.7805 116.6464,6.8659 116.2781,6.9518 115.91,7.0383 115.5419,7.1253 115.1741,7.2129 114.8063,7.301 114.4387,7.3896 114.0712,7.4787 113.7038,7.5684 113.3365,7.6586 112.9694,7.7494 112.6024,7.8407 112.2356,7.9325 111.8689,8.0248 111.5023,8.1177 111.1359,8.2111 110.7696,8.3051 110.4034,8.3996 110.0374,8.4946 109.6715,8.5902 109.3057,8.6863 108.9401,8.7829 108.5746,8.88 108.2093,8.9777 107.8441,9.0759 107.4791,9.1747 107.1142,9.274 106.7494,9.3738 106.3848,9.4741 106.0204,9.575 105.6561,9.6764 105.2919,9.7783 104.9279,9.8808 104.564,9.9838 104.2003,10.0873 103.8367,10.1913 103.4733,10.2959 103.11,10.401 102.7469,10.5066 102.384,10.6128 102.0212,10.7195 101.6585,10.8267 101.2961,10.9345 100.9337,11.0427 100.5716,11.1515 100.2095,11.2609 99.8477,11.3707 99.486,11.4811 99.1245,11.592 98.7631,11.7035 98.4019,11.8154 98.0408,11.9279 97.68,12.0409 97.3192,12.1545 96.9587,12.2685 96.5983,12.3831 96.2381,12.4982 95.878,12.6139 95.5182,12.73 95.1584,12.8467 94.7989,12.9639 94.4395,13.0816 94.0803,13.1999 93.7213,13.3187 93.3625,13.438 93.0038,13.5578 92.6453,13.6781 92.287,13.799 91.9288,13.9204 91.5708,14.0423 91.213,14.1647 90.8554,14.2877 90.498,14.4111 90.1407,14.5351 89.7836,14.6596 89.4267,14.7847 89.07,14.9102 88.7135,15.0363 88.3572,15.1629 88.001,15.29 87.645,15.4176 87.2892,15.5457 86.9336,15.6744 86.5782,15.8036 86.223,15.9333 85.8679,16.0635 85.5131,16.1942 85.1584,16.3254 84.804,16.4572 84.4497,16.5895 84.0956,16.7223 83.7417,16.8556 83.388,16.9894 83.0345,17.1237 82.6812,17.2586 82.3281,17.3939 81.9752,17.5298 81.6225,17.6662 81.27,17.8031 80.9177,17.9405 80.5656,18.0785 80.2137,18.2169 79.862,18.3559 79.5105,18.4953 79.1592,18.6353 78.8081,18.7758 78.4572,18.9168 78.1065,19.0583 77.756,19.2003 77.4057,19.3429 77.0557,19.4859 76.7058,19.6295 76.3562,19.7735 76.0067,19.9181 75.6575,20.0632 75.3085,20.2087 74.9597,20.3548 74.6111,20.5014 74.2627,20.6485 73.9145,20.7962 73.5666,20.9443 73.2189,21.0929 72.8713,21.242 72.524,21.3917 72.177,21.5418 71.8301,21.6925 71.4835,21.8436 71.1371,21.9953 70.7909,22.1474 70.4449,22.3001 70.0991,22.4533 69.7536,22.6069 69.4083,22.7611 69.0632,22.9158 68.7183,23.071 68.3737,23.2267 68.0293,23.3828 67.6851,23.5395 67.3412,23.6967 66.9975,23.8544 66.654,24.0126 66.3107,24.1713 65.9677,24.3305 65.6249,24.4901 65.2823,24.6503 64.94,24.811 64.5979,24.9722 64.2561,25.1339 63.9144,25.296 63.5731,25.4587 63.2319,25.6219 62.891,25.7855 62.5503,25.9497 62.2099,26.1144 61.8697,26.2795 61.5297,26.4452 61.19,26.6113 60.8506,26.7779 60.5113,26.9451 60.1724,27.1127 59.8336,27.2808 59.4951,27.4494 59.1569,27.6185 58.8189,27.7881 58.4811,27.9582 58.1436,28.1288 57.8064,28.2998 57.4693,28.4714 57.1326,28.6434 56.7961,28.816 56.4598,28.989 56.1238,29.1625 55.7881,29.3365 55.4526,29.511 55.1173,29.686 54.7823,29.8615 54.4476,30.0375 54.1131,30.2139 53.7789,30.3908 53.445,30.5683 53.1113,30.7462 52.7778,30.9245 52.4446,31.1034 52.1117,31.2828 51.7791,31.4626 51.4467,31.643 51.1145,31.8238 50.7827,32.0051 50.451,32.1868 50.1197,32.3691 49.7886,32.5518 49.4578,32.7351 49.1273,32.9188 48.797,33.103 48.467,33.2876 48.1373,33.4728 47.8078,33.6584 47.4786,33.8445 47.1497,34.0311 46.821,34.2182 46.4926,34.4057 46.1645,34.5937 45.8367,34.7822 45.5091,34.9712 45.1818,35.1607 44.8548,35.3506 44.5281,35.541 44.2016,35.7319 43.8755,35.9232 43.5496,36.115 43.224,36.3073 42.8986,36.5001 42.5736,36.6934 42.2488,36.8871 41.9243,37.0813 41.6001,37.276 41.2762,37.4711 40.9525,37.6667 40.6292,37.8628 40.3061,38.0593 39.9833,38.2564 39.6608,38.4539 39.3386,38.6518 39.0167,38.8502 38.6951,39.0491 38.3737,39.2485 38.0527,39.4483 37.7319,39.6486 37.4114,39.8494 37.0913,40.0506 36.7714,40.2523 36.4518,40.4545 36.1325,40.6571 35.8135,40.8602 35.4948,41.0638 35.1764,41.2678 34.8583,41.4723 34.5405,41.6772 34.223,41.8826 33.9058,42.0885 33.5888,42.2949 33.2722,42.5016 32.9559,42.7089 32.6399,42.9166 32.3242,43.1248 32.0088,43.3334 31.6937,43.5425 31.3789,43.7521 31.0644,43.9621 30.7502,44.1725 30.4364,44.3835 30.1228,44.5949 29.8095,44.8067 29.4966,45.019 29.1839,45.2317 28.8716,45.4449 28.5596,45.6586 28.2479,45.8727 27.9365,46.0873 27.6254,46.3023 27.3146,46.5178 27.0042,46.7337 26.694,46.95 26.3842,47.1669 26.0747,47.3842 25.7655,47.6019 25.4566,47.8201 25.148,48.0387 24.8398,48.2578 24.5319,48.4773 24.2243,48.6972 23.917,48.9177 23.61,49.1385 23.3034,49.3598 22.9971,49.5816 22.6911,49.8038 22.3854,50.0265 22.0801,50.2495 21.775,50.4731 21.4704,50.6971 21.166,50.9215 20.8619,51.1464 20.5582,51.3717 20.2548,51.5974 19.9518,51.8236 19.6491,52.0502 19.3467,52.2773 19.0446,52.5048 18.7429,52.7328 18.4415,52.9612 18.1404,53.19 17.8397,53.4193 17.5392,53.649 17.2392,53.8791 16.9394,54.1097 16.6401,54.3407 16.341,54.5722 16.0423,54.8041 15.7439,55.0364 15.4458,55.2691 15.1481,55.5023 14.8508,55.736 14.5537,55.97 14.257,56.2045 13.9607,56.4394 13.6647,56.6748 13.369,56.9105 13.0737,57.1468 12.7788,57.3834 12.4841,57.6205 12.1898,57.858 11.8959,58.0959 11.6023,58.3342 11.3091,58.573 11.0162,58.8122 10.7236,59.0519 10.4314,59.2919 10.1396,59.5324 9.8481,59.7733 9.557,60.0146 9.2662,60.2564 8.9757,60.4986 8.6856,60.7412 8.3959,60.9842 8.1065,61.2276 7.8175,61.4715 7.5288,61.7158 7.2405,61.9605 6.9525,62.2056 6.6649,62.4512 6.3777,62.6971 6.0908,62.9435 5.8043,63.1903 5.5181,63.4375 5.5181,63.4375 5.2181,63.6694 4.9239,63.9087 4.6357,64.1551 4.3537,64.4086 4.078,64.669 3.8089,64.9361 3.5464,65.2097 3.2908,65.4898 3.0421,65.776 2.8006,66.0684 2.5664,66.3666 2.3396,66.6705 2.1204,66.9799 1.9089,67.2946 1.7052,67.6145 1.5095,67.9393 1.3219,68.2688 1.1424,68.6028 0.9713,68.9412 0.8086,69.2837 0.6544,69.6301 0.5087,69.9802 0.3718,70.3338 0.2437,70.6907 0.1243,71.0506 0.1243,71.0506 0.0945,276.3006 0.0945,276.3006 0.1172,276.6789 0.1589,277.0555 0.2193,277.4296 0.2985,277.8002 0.3961,278.1664 0.5119,278.5272 0.6456,278.8818 0.7969,279.2292 0.9655,279.5686 1.1508,279.8992 1.3524,280.22 1.5699,280.5303 1.8026,280.8294 2.0501,281.1164 2.3116,281.3907 2.5864,281.6515 2.8741,281.8983 3.1737,282.1303 3.4845,282.347 3.8059,282.5479 4.1368,282.7325 4.4766,282.9002 4.8244,283.0507 5.1793,283.1836 5.5404,283.2985 5.9068,283.3952 6.2776,283.4735 6.6518,283.5331 7.0286,283.5738 7.4069,283.5957 7.7858,283.5985 7.7858,283.5985 8.8252,283.6012 8.8252,283.6012 9.2036,283.6016 9.582,283.6022 9.9603,283.6029 10.3387,283.6037 10.7171,283.6047 11.0955,283.6058 11.4739,283.6071 11.8522,283.6085 12.2306,283.61 12.609,283.6116 12.9874,283.6134 13.3657,283.6153 13.7441,283.6174 14.1225,283.6196 14.5009,283.6219 14.8792,283.6244 15.2576,283.627 15.636,283.6297 16.0144,283.6326 16.3927,283.6356 16.7711,283.6387 17.1495,283.6419 17.5278,283.6453 17.9062,283.6489 18.2845,283.6525 18.6629,283.6564 19.0413,283.6603 19.4196,283.6644 19.798,283.6686 20.1763,283.6729 20.5547,283.6774 20.933,283.682 21.3114,283.6867 21.6897,283.6916 22.0681,283.6966 22.4464,283.7018 22.8248,283.707 23.2031,283.7125 23.5815,283.718 23.9598,283.7237 24.3381,283.7295 24.7165,283.7355 25.0948,283.7416 25.4731,283.7478 25.8515,283.7541 26.2298,283.7606 26.6081,283.7672 26.9864,283.774 27.3647,283.7809 27.7431,283.7879 28.1214,283.7951 28.4997,283.8024 28.878,283.8098 29.2563,283.8174 29.6346,283.8251 30.0129,283.8329 30.3912,283.8409 30.7695,283.849 31.1478,283.8572 31.5261,283.8656 31.9044,283.8741 32.2826,283.8827 32.6609,283.8915 33.0392,283.9004 33.4175,283.9095 33.7957,283.9186 34.174,283.9279 34.5523,283.9374 34.9305,283.947 35.3088,283.9567 35.687,283.9665 36.0653,283.9765 36.4435,283.9866 36.8218,283.9969 37.2,284.0073 37.5782,284.0178 37.9565,284.0284 38.3347,284.0392 38.7129,284.0502 39.0911,284.0612 39.4693,284.0724 39.8476,284.0837 40.2258,284.0952 40.604,284.1068 40.9822,284.1185 41.3604,284.1304 41.7386,284.1424 42.1167,284.1545 42.4949,284.1668 42.8731,284.1792 43.2513,284.1917 43.6294,284.2044 44.0076,284.2172 44.3858,284.2301 44.7639,284.2432 45.1421,284.2564 45.5202,284.2697 45.8984,284.2832 46.2765,284.2968 46.6546,284.3106 47.0327,284.3245 47.4109,284.3385 47.789,284.3526 48.1671,284.3669 48.5452,284.3813 48.9233,284.3959 49.3014,284.4105 49.6795,284.4254 50.0576,284.4403 50.4356,284.4554 50.8137,284.4706 51.1918,284.486 51.5699,284.5015 51.9479,284.5171 52.326,284.5329 52.704,284.5487 53.0821,284.5648 53.4601,284.5809 53.8381,284.5972 54.2161,284.6137 54.5942,284.6302 54.9722,284.6469 55.3502,284.6638 55.7282,284.6807 56.1062,284.6978 56.4842,284.7151 56.8621,284.7324 57.2401,284.7499 57.6181,284.7676 57.996,284.7853 58.374,284.8033 58.752,284.8213 59.1299,284.8395 59.5078,284.8578 59.8858,284.8762 60.2637,284.8948 60.6416,284.9135 61.0195,284.9324 61.3974,284.9513 61.7753,284.9705 62.1532,284.9897 62.5311,285.0091 62.909,285.0286 63.2868,285.0483 63.6647,285.068 64.0426,285.088 64.4204,285.108 64.7983,285.1282 65.1761,285.1485 65.5539,285.169 65.9317,285.1896 66.3095,285.2103 66.6874,285.2312 67.0651,285.2521 67.4429,285.2733 67.8207,285.2945 68.1985,285.3159 68.5763,285.3375 68.954,285.3591 69.3318,285.3809 69.7095,285.4029 70.0873,285.4249 70.465,285.4471 70.8427,285.4695 71.2204,285.4919 71.5981,285.5145 71.9758,285.5373 72.3535,285.5601 72.7312,285.5831 73.1089,285.6063 73.4865,285.6296 73.8642,285.653 74.2418,285.6765 74.6195,285.7002 74.9971,285.724 75.3747,285.7479 75.7523,285.772 76.1299,285.7962 76.5075,285.8206 76.8851,285.8451 77.2627,285.8697 77.6403,285.8944 78.0178,285.9193 78.3954,285.9443 78.7729,285.9695 79.1505,285.9948 79.528,286.0202 79.9055,286.0457 80.283,286.0714 80.6605,286.0973 81.038,286.1232 81.4155,286.1493 81.793,286.1755 82.1704,286.2019 82.5479,286.2284 82.9253,286.255 83.3027,286.2818 83.6802,286.3087 84.0576,286.3357 84.435,286.3628 84.8124,286.3901 85.1898,286.4176 85.5671,286.4451 85.9445,286.4728 86.3219,286.5007 86.6992,286.5286 87.0765,286.5567 87.4539,286.585 87.8312,286.6133 88.2085,286.6418 88.5858,286.6705 88.9631,286.6993 89.3403,286.7282 89.7176,286.7572 90.0949,286.7864 90.4721,286.8157 90.8493,286.8451 91.2266,286.8747 91.6038,286.9044 91.981,286.9342 92.3582,286.9642 92.7354,286.9943 93.1125,287.0246 93.4897,287.055 93.8668,287.0855 94.244,287.1161 94.6211,287.1469 94.9982,287.1778 95.3753,287.2089 95.7524,287.24 96.1295,287.2714 96.5066,287.3028 96.8836,287.3344 97.2607,287.3661 97.6377,287.398 98.0147,287.4299 98.3917,287.4621 98.7688,287.4943 99.1457,287.5267 99.5227,287.5592 99.8997,287.5919 100.2766,287.6247 100.6536,287.6576 101.0305,287.6907 101.4074,287.7238 101.7844,287.7572 102.1613,287.7906 102.5381,287.8242 102.915,287.8579 103.2919,287.8918 103.6687,287.9258 104.0456,287.9599 104.4224,287.9942 104.7992,288.0286 105.176,288.0631 105.5528,288.0978 105.9296,288.1326 106.3063,288.1675 106.6831,288.2026 107.0598,288.2378 107.4366,288.2731 107.8133,288.3086 108.19,288.3442 108.5667,288.3799 108.9433,288.4158 109.32,288.4518 109.6967,288.4879 110.0733,288.5242 110.4499,288.5606 110.8265,288.5971 111.2031,288.6338 111.5797,288.6706 111.9563,288.7075 112.3329,288.7446 112.7094,288.7818 113.0859,288.8191 113.4625,288.8566 113.839,288.8942 114.2155,288.932 114.5919,288.9698 114.9684,289.0078 115.3449,289.046 115.7213,289.0843 116.0977,289.1227 116.4741,289.1612 116.8505,289.1999 117.2269,289.2387 117.6033,289.2776 117.9797,289.3167 118.356,289.3559 118.7323,289.3953 119.1086,289.4347 119.4849,289.4744 119.8612,289.5141 120.2375,289.554 120.6138,289.594 120.99,289.6341 121.3662,289.6744 121.7425,289.7148 122.1187,289.7554 122.4948,289.7961 122.871,289.8369 123.2472,289.8778 123.6233,289.9189 123.9994,289.9601 124.3756,290.0015 124.7517,290.043 125.1277,290.0846 125.5038,290.1263 125.8799,290.1682 126.2559,290.2102 126.6319,290.2524 127.0079,290.2947 127.3839,290.3371 127.7599,290.3796 128.1359,290.4223 128.5118,290.4651 128.8878,290.5081 129.2637,290.5512 129.6396,290.5944 130.0155,290.6377 130.3914,290.6812 130.7672,290.7248 131.1431,290.7686 131.5189,290.8125 131.8947,290.8565 132.2705,290.9006 132.6463,290.9449 133.022,290.9893 133.3978,291.0339 133.7735,291.0786 134.1492,291.1234 134.5249,291.1684 134.9006,291.2134 135.2763,291.2587 135.6519,291.304 136.0276,291.3495 136.4032,291.3951 136.7788,291.4409 137.1544,291.4868 137.53,291.5328 137.9055,291.5789 138.2811,291.6252 138.6566,291.6717 139.0321,291.7182 139.4076,291.7649 139.783,291.8117 140.1585,291.8587 140.5339,291.9058 140.9094,291.953 141.2848,292.0003 141.6602,292.0478 142.0355,292.0954 142.4109,292.1432 142.7862,292.1911 143.1615,292.2391 143.5368,292.2873 143.9121,292.3356 144.2874,292.384 144.6627,292.4325 145.0379,292.4812 145.4131,292.53 145.7883,292.579 146.1635,292.6281 146.5387,292.6773 146.9138,292.7266 147.2889,292.7761 147.664,292.8258 148.0391,292.8755 148.4142,292.9254 148.7893,292.9754 149.1643,293.0256 149.5393,293.0759 149.9144,293.1263 150.2893,293.1768 150.6643,293.2275 151.0393,293.2783 151.4142,293.3293 151.7891,293.3804 152.164,293.4316 152.5389,293.4829 152.9138,293.5344 153.2886,293.586 153.6634,293.6378 154.0382,293.6897 154.413,293.7417 154.7878,293.7938 155.1625,293.8461 155.5373,293.8985 155.912,293.9511 156.2867,294.0038 156.6614,294.0566 157.036,294.1095 157.4107,294.1626 157.7853,294.2158 158.1599,294.2692 158.5345,294.3227 158.909,294.3763 159.2836,294.43 159.6581,294.4839 160.0326,294.5379 160.4071,294.5921 160.7815,294.6463 161.156,294.7008 161.5304,294.7553 161.9048,294.81 162.2792,294.8648 162.6536,294.9197 163.0279,294.9748 163.4023,295.03 163.7766,295.0854 164.1509,295.1408 164.5251,295.1965 164.8994,295.2522 165.2736,295.3081 165.6478,295.3641 166.022,295.4202 166.3962,295.4765 166.7704,295.5329 167.1445,295.5894 167.5186,295.6461 167.8927,295.7029 168.2668,295.7599 168.6408,295.8169 169.0149,295.8741 169.3889,295.9315 169.7629,295.9889 170.1368,296.0465 170.5108,296.1043 170.8847,296.1621 171.2586,296.2201 171.6325,296.2783 172.0064,296.3365 172.3802,296.3949 172.754,296.4535 173.1278,296.5121 173.5016,296.5709 173.8754,296.6299 174.2491,296.6889 174.6229,296.7481 174.9966,296.8074 175.3702,296.8669 175.7439,296.9265 176.1175,296.9862 176.4912,297.0461 176.8647,297.1061 177.2383,297.1662 177.6119,297.2265 177.9854,297.2868 178.3589,297.3474 178.7324,297.408 179.1059,297.4688 179.4793,297.5297 179.8527,297.5908 180.2261,297.652 180.5995,297.7133 180.9729,297.7747 181.3462,297.8363 181.7195,297.898 182.0928,297.9599 182.4661,298.0219 182.8393,298.084 183.2126,298.1462 183.5858,298.2086 183.9589,298.2711 184.3321,298.3338 184.7052,298.3965 185.0783,298.4595 185.4514,298.5225 185.8245,298.5857 186.1976,298.649 186.5706,298.7124 186.9436,298.776 187.3166,298.8397 187.6895,298.9035 188.0625,298.9675 188.4354,299.0316 188.8083,299.0958 189.1811,299.1602 189.554,299.2247 189.9268,299.2893 190.2996,299.3541 190.6724,299.419 191.0451,299.484 191.4178,299.5492 191.7905,299.6145 192.1632,299.6799 192.5359,299.7454 192.9085,299.8111 193.2811,299.877 193.6537,299.9429 194.0263,300.009 194.3988,300.0752 194.7713,300.1416 195.1438,300.2081 195.5163,300.2747 195.8887,300.3414 196.2612,300.4083 196.6336,300.4753 197.0059,300.5425 197.3783,300.6097 197.7506,300.6771 198.1229,300.7447 198.4952,300.8124 198.8675,300.8802 199.2397,300.9481 199.6119,301.0162 199.9841,301.0844 200.3562,301.1527 200.7284,301.2212 201.1005,301.2898 201.4726,301.3585 201.8446,301.4274 202.2167,301.4964 202.5887,301.5655 202.9607,301.6348 203.3326,301.7042 203.7046,301.7737 204.0765,301.8433 204.4484,301.9131 204.8202,301.9831 205.1921,302.0531 205.5639,302.1233 205.9357,302.1936 206.3074,302.2641 206.6792,302.3346 207.0509,302.4054 207.4226,302.4762 207.7942,302.5472 208.1659,302.6183 208.5375,302.6895 208.9091,302.7609 209.2806,302.8324 209.6522,302.904 210.0237,302.9758 210.3952,303.0477 210.7666,303.1197 211.1381,303.1919 211.5095,303.2642 211.8809,303.3366 212.2522,303.4092 212.6236,303.4819 212.9949,303.5547 213.3662,303.6277 213.7374,303.7008 214.1086,303.774 214.4798,303.8473 214.851,303.9208 215.2222,303.9944 215.5933,304.0682 215.9644,304.1421 216.3355,304.2161 216.7065,304.2902 217.0775,304.3645 217.4485,304.4389 217.8195,304.5134 218.1904,304.5881 218.5613,304.6629 218.9322,304.7378 219.3031,304.8129 219.6739,304.8881 220.0447,304.9634 220.4155,305.0389 220.7863,305.1145 221.157,305.1902 221.5277,305.2661 221.8984,305.342 222.269,305.4182 222.6396,305.4944 223.0102,305.5708 223.3808,305.6473 223.7513,305.7239 224.1218,305.8007 224.4923,305.8776 224.8628,305.9547 225.2332,306.0318 225.6036,306.1091 225.974,306.1866 226.3443,306.2641 226.7146,306.3418 227.0849,306.4197 227.4552,306.4976 227.8254,306.5757 228.1956,306.6539 228.5658,306.7323 228.9359,306.8108 229.3061,306.8894 229.6762,306.9682 230.0462,307.047 230.4163,307.126 230.7863,307.2052 231.1563,307.2845 231.5262,307.3639 231.8961,307.4434 232.266,307.5231 232.6359,307.6029 233.0057,307.6828 233.3756,307.7629 233.7453,307.8431 234.1151,307.9234 234.4848,308.0039 234.8545,308.0844 235.2242,308.1652 235.5938,308.246 235.9635,308.327 236.333,308.4081 236.7026,308.4894 237.0721,308.5707 237.4416,308.6522 237.8111,308.7339 238.1805,308.8156 238.5499,308.8975 238.9193,308.9796 239.2887,309.0617 239.658,309.144 240.0273,309.2265 240.3965,309.309 240.7658,309.3917 241.135,309.4745 241.5042,309.5575 241.8733,309.6406 242.2424,309.7238 242.6115,309.8071 242.9806,309.8906 243.3496,309.9742 243.7186,310.0579 244.0876,310.1418 244.4565,310.2258 244.8254,310.3099 245.1943,310.3942 245.5631,310.4786 245.932,310.5631 246.3008,310.6478 246.6695,310.7325 247.0382,310.8175 247.4069,310.9025 247.7756,310.9877 248.1442,311.073 248.5129,311.1584 248.8814,311.244 249.25,311.3297 249.6185,311.4155 249.987,311.5015 250.3554,311.5876 250.7239,311.6738 251.0923,311.7602 251.4606,311.8467 251.829,311.9333 252.1973,312.02 252.5655,312.1069 252.9338,312.1939 253.302,312.2811 253.6702,312.3683 254.0383,312.4557 254.4064,312.5433 254.7745,312.6309 255.1426,312.7187 255.5106,312.8067 255.8786,312.8947 256.2465,312.9829 256.6145,313.0712 256.9824,313.1597 257.3502,313.2482 257.7181,313.337 258.0859,313.4258 258.4536,313.5148 258.8214,313.6039 259.1891,313.6931 259.5568,313.7825 259.9244,313.8719 260.292,313.9616 260.6596,314.0513 261.0272,314.1412 261.3947,314.2312 261.7622,314.3214 262.1296,314.4116 262.497,314.5021 262.8644,314.5926 263.2318,314.6833 263.5991,314.7741 263.9664,314.865 264.3337,314.956 264.7009,315.0472 265.0681,315.1386 265.4352,315.23 265.8024,315.3216 266.1695,315.4133 266.5365,315.5051 266.9036,315.5971 267.2706,315.6892 267.6375,315.7814 268.0045,315.8738 268.3714,315.9663 268.7382,316.0589 269.1051,316.1517 269.4719,316.2446 269.8387,316.3376 270.2054,316.4307 270.5721,316.524 270.9388,316.6174 271.3054,316.7109 271.672,316.8046 272.0386,316.8984 272.4051,316.9923 272.7716,317.0864 273.1381,317.1806 273.5045,317.2749 273.5045,317.2749 273.8714,317.369 274.2382,317.4635 274.6049,317.5585 274.9714,317.6538 275.3379,317.7496 275.7042,317.8458 276.0704,317.9425 276.4366,318.0395 276.8026,318.137 277.1685,318.2349 277.5342,318.3332 277.8999,318.432 278.2655,318.5311 278.6309,318.6307 278.9962,318.7307 279.3614,318.8311 279.7265,318.932 280.0915,319.0333 280.4564,319.1349 280.8211,319.2371 281.1857,319.3396 281.5502,319.4425 281.9146,319.5459 282.2789,319.6497 282.643,319.7539 283.007,319.8585 283.371,319.9636 283.7347,320.0691 284.0984,320.175 284.4619,320.2813 284.8254,320.388 285.1886,320.4951 285.5518,320.6027 285.9149,320.7107 286.2778,320.8191 286.6406,320.9279 287.0032,321.0372 287.3658,321.1468 287.7282,321.2569 288.0905,321.3674 288.4527,321.4783 288.8147,321.5896 289.1766,321.7014 289.5384,321.8135 289.9,321.9261 290.2615,322.0391 290.6229,322.1525 290.9842,322.2663 291.3453,322.3806 291.7063,322.4952 292.0672,322.6103 292.4279,322.7258 292.7885,322.8417 293.1489,322.958 293.5093,323.0748 293.8694,323.1919 294.2295,323.3095 294.5894,323.4275 294.9492,323.5459 295.3088,323.6647 295.6684,323.7839 296.0277,323.9036 296.387,324.0236 296.7461,324.1441 297.105,324.265 297.4638,324.3863 297.8225,324.508 298.181,324.6301 298.5394,324.7527 298.8977,324.8756 299.2558,324.999 299.6138,325.1228 299.9716,325.247 300.3293,325.3716 300.6868,325.4966 301.0442,325.622 301.4015,325.7478 301.7586,325.8741 302.1155,326.0008 302.4723,326.1278 302.829,326.2553 303.1855,326.3832 303.5419,326.5115 303.8981,326.6402 304.2542,326.7694 304.6101,326.8989 304.9659,327.0288 305.3215,327.1592 305.677,327.29 306.0323,327.4211 306.3875,327.5527 306.7425,327.6847 307.0974,327.8171 307.4521,327.95 307.8066,328.0832 308.161,328.2168 308.5153,328.3509 308.8694,328.4853 309.2233,328.6202 309.5771,328.7554 309.9307,328.8911 310.2842,329.0272 310.6375,329.1637 310.9907,329.3006 311.3437,329.4379 311.6965,329.5756 312.0492,329.7137 312.4018,329.8522 312.7541,329.9911 313.1063,330.1305 313.4584,330.2702 313.8103,330.4104 314.162,330.5509 314.5135,330.6919 314.8649,330.8332 315.2162,330.975 315.5672,331.1172 315.9181,331.2597 316.2689,331.4027 316.6194,331.5461 316.9699,331.6899 317.3201,331.8341 317.6702,331.9787 318.0201,332.1237 318.3698,332.2691 318.7194,332.4149 319.0688,332.5611 319.4181,332.7077 319.7671,332.8547 320.116,333.0022 320.4647,333.15 320.8133,333.2982 321.1617,333.4468 321.5099,333.5958 321.858,333.7453 322.2058,333.8951 322.5535,334.0453 322.901,334.1959 323.2484,334.347 323.5956,334.4984 323.9426,334.6502 324.2894,334.8025 324.6361,334.9551 324.9825,335.1081 325.3288,335.2615 325.6749,335.4154 326.0209,335.5696 326.3667,335.7242 326.7122,335.8792 327.0577,336.0347 327.4029,336.1905 327.7479,336.3467 328.0928,336.5033 328.4375,336.6603 328.782,336.8177 329.1263,336.9755 329.4705,337.1337 329.8144,337.2923 330.1582,337.4513 330.5018,337.6107 330.8452,337.7705 331.1884,337.9307 331.5315,338.0913 331.8743,338.2522 332.217,338.4136 332.5595,338.5754 332.9018,338.7375 333.2439,338.9001 333.5858,339.063 333.9275,339.2264 334.2691,339.3901 334.6104,339.5542 334.9516,339.7188 335.2926,339.8837 335.6334,340.049 335.974,340.2147 336.3144,340.3808 336.6546,340.5473 336.9946,340.7141 337.3344,340.8814 337.6741,341.0491 338.0135,341.2171 338.3528,341.3856 338.6918,341.5544 339.0307,341.7236 339.3693,341.8933 339.7078,342.0633 340.0461,342.2337 340.3841,342.4044 340.722,342.5756 341.0597,342.7472 341.3972,342.9191 341.7345,343.0915 342.0715,343.2642 342.4084,343.4373 342.7451,343.6108 343.0816,343.7847 343.4179,343.959 343.754,344.1337 344.0898,344.3088 344.4255,344.4842 344.761,344.66 345.0963,344.8363 345.4313,345.0129 345.7662,345.1899 346.1009,345.3672 346.4353,345.545 346.7696,345.7231 347.1036,345.9017 347.4375,346.0806 347.7711,346.2599 348.1045,346.4396 348.4378,346.6197 348.7708,346.8001 349.1036,346.981 349.4362,347.1622 349.7686,347.3438 350.1007,347.5258 350.4327,347.7082 350.7645,347.8909 351.096,348.0741 351.4273,348.2576 351.7585,348.4415 352.0894,348.6258 352.4201,348.8104 352.7506,348.9955 353.0808,349.1809 353.4109,349.3667 353.7407,349.5529 354.0704,349.7395 354.3998,349.9264 354.729,350.1137 355.058,350.3014 355.3867,350.4895 355.7153,350.678 356.0436,350.8668 356.3717,351.0561 356.6996,351.2457 357.0273,351.4356 357.3547,351.626 357.682,351.8167 358.009,352.0078 358.3358,352.1993 358.6624,352.3912 358.9887,352.5834 359.3148,352.776 359.6407,352.969 359.9664,353.1624 360.2919,353.3561 360.6171,353.5502 360.9422,353.7447 361.2669,353.9396 361.5915,354.1348 361.9158,354.3305 362.24,354.5264 362.5639,354.7228 362.8875,354.9195 363.211,355.1167 363.5342,355.3141 363.8571,355.512 364.1799,355.7102 364.5024,355.9088 364.8247,356.1078 365.1468,356.3071 365.4686,356.5068 365.7902,356.7069 366.1116,356.9074 366.4327,357.1082 366.7536,357.3094 367.0743,357.5109 367.3948,357.7129 367.715,357.9152 368.035,358.1178 368.3547,358.3209 368.6742,358.5243 368.6742,358.5243 368.9976,358.7225 369.3307,358.9039 369.6726,359.0681 370.0224,359.2146 370.3793,359.3431 370.7422,359.4533 371.1103,359.5448 371.4826,359.6173 371.8581,359.6708 372.2359,359.7051 372.6149,359.7201 372.9941,359.7157 373.3727,359.6919 373.7495,359.6489 374.1237,359.5867 374.4942,359.5055 374.86,359.4055 375.2203,359.287 375.5741,359.1503 375.9205,358.9957 376.2585,358.8236 376.5873,358.6345 376.906,358.4288 377.2138,358.2072 377.5099,357.9702 377.7935,357.7184 378.0639,357.4524 378.3204,357.173 378.5623,356.8808 378.789,356.5768 378.9999,356.2615 378.9999,356.2615 422.2819,280.3474 422.2819,280.3474 422.4502,280.0068 422.6165,279.6652 422.7807,279.3226 422.9429,278.9791 423.103,278.6346 423.261,278.2891 423.417,277.9427 423.5709,277.5954 423.7227,277.2472 423.8725,276.898 424.0201,276.548 424.1657,276.1971 424.3092,275.8453 424.4505,275.4927 424.5898,275.1393 424.7269,274.785 424.8619,274.4299 424.9948,274.074 425.1256,273.7173 425.2542,273.3598 425.3807,273.0016 425.505,272.6426 425.6272,272.2829 425.7473,271.9225 425.8651,271.5614 425.9809,271.1995 426.0944,270.837 426.2058,270.4738 426.315,270.1099 426.4221,269.7454 426.527,269.3803 426.6296,269.0146 426.7301,268.6482 426.8284,268.2812 426.9245,267.9137 427.0184,267.5456 427.1101,267.1769 427.1996,266.8077 427.2869,266.438 427.372,266.0677 427.4549,265.697 427.5355,265.3258 427.614,264.9541 427.6902,264.5819 427.7642,264.2093 427.8359,263.8362 427.9054,263.4627 427.9727,263.0888 428.0378,262.7145 428.1006,262.3399 428.1612,261.9648 428.2195,261.5895 428.2756,261.2137 428.3294,260.8377 428.381,260.4613 428.4304,260.0846 428.4775,259.7076 428.5223,259.3304 428.5649,258.9529 428.6052,258.5751 428.6433,258.1972 428.6791,257.819 428.7127,257.4405 428.7439,257.0619 428.773,256.6832 428.7997,256.3042 428.8242,255.9251 428.8464,255.5459 428.8664,255.1665 428.8841,254.787 428.8995,254.4074 428.9127,254.0277 428.9236,253.648 428.9322,253.2682 428.9385,252.8884 428.9426,252.5085 428.9426,252.5085 428.8972,242.986 428.8972,242.986"
       id="boundary" />
    <path
       style="fill:none;stroke:#ff0000;stroke-width:1.10402px;stroke-linecap:butt;stroke-linejoin:miter;stroke-opacity:1"
       d="m 348.15395,122.4891 77.90865,0.0716"
       id="usbc" />
    <path
       style="fill:none;stroke:#0000ff;stroke-width:1.81303px;stroke-linecap:butt;stroke-linejoin:miter;stroke-opacity:1"
       d="m 428.89911,242.88561 0.0415,34.18441"
       id="trrs" />
  </g>
</svg>
